# xmcd
#
# Track frame offsets:
#	300
#	21390
#	46287
#	70575
#	91575
#	109617
#	132267
#	151157
#	169830
#	187442
#
# Disc length: 2806 seconds
#
# Revision: 1
# Processed by: cddbd v1.5.1PL0 Copyright (c) Steve Scherf et al.
# Submitted via: audiograbber 1.83.01
#
DISCID=800af20a
DTITLE=LITTLE MILTON - CHEATIN HABIT
DYEAR=1996
DGENRE=
TTITLE0=KICK MY CHEATIN' HABITS
TTITLE1=HOW DOES A CHEATIN' WOMAN FEEL
TTITLE2=WHAT DO YOU DO WHEN YOU LOVE SOMEBODY
TTITLE3=THIS TIME THEY TOLD THE TRUTH
TTITLE4=IT'S TIMNE FOR THE BLUES
TTITLE5=IT'S HARD TO STUMBLE
TTITLE6=I WOULDN'T TAKE NOTHING FOR YOUR LOVE
TTITLE7=SHAKE, RATTLE AND ROLL
TTITLE8=I WORRY ABOUT YOU
TTITLE9=THE OTHER MAN
EXTD=
EXTT0=
EXTT1=
EXTT2=
EXTT3=
EXTT4=
EXTT5=
EXTT6=
EXTT7=
EXTT8=
EXTT9=
PLAYORDER=
